<?xml version="1.0" encoding="UTF-8"?>
<svg width="82px" height="26px" viewBox="0 0 82 26" version="1.1" xmlns="http://www.w3.org/2000/svg" xmlns:xlink="http://www.w3.org/1999/xlink">
    <!-- Generator: Sketch 51.2 (57519) - http://www.bohemiancoding.com/sketch -->
    <title>logo</title>
    <desc>Created with Sketch.</desc>
    <defs></defs>
    <g id="Page-1" stroke="none" stroke-width="1" fill="none" fill-rule="evenodd">
        <g id="logo" fill="#6055D9" fill-rule="nonzero">
            <path d="M0,0.110272134 C0.404,0.0702721336 0.668,0.0202721336 0.933,0.0192721336 C4.603,0.0132721336 8.272,0.0322721336 11.94,0.000272133581 C12.696,-0.00672786642 12.924,0.234272134 12.959,1.01027213 C13.201,6.46527213 17.699,11.3032721 23.009,12.3332721 C28.93,13.4802721 35.892,9.67327213 37.383,2.29027213 C37.526,1.58427213 37.535,0.850272134 37.61,0.0872721336 L50.43,0.0872721336 C50.023,9.03527213 46.555,16.2872721 39.222,21.1612721 C30.117,27.2122721 20.639,27.2672721 11.475,21.3382721 C3.986,16.4932721 0.444,9.15227213 0,0.111272134 L0,0.110272134 Z M66.55,13.0202721 C66.55,16.9502721 66.527,20.8802721 66.568,24.8082721 C66.578,25.7362721 66.283,26.0122721 65.385,26.0002721 C61.8834889,25.9535921 58.3815111,25.9535921 54.88,26.0002721 C53.973,26.0122721 53.705,25.7262721 53.709,24.8042721 C53.739,16.9112721 53.732,9.01727213 53.715,1.12427213 C53.713,0.360272134 53.863,-0.00772786642 54.731,0.00327213358 C58.336,0.0472721336 61.941,0.0502721336 65.546,0.000272133581 C66.431,-0.0117278664 66.563,0.373272134 66.559,1.12827213 C66.539,5.09227213 66.549,9.05627213 66.55,13.0212721 L66.55,13.0202721 Z M69.096,6.58727213 C68.92,2.79727213 72.277,-0.0127278664 75.4,0.000272133581 C79.078,0.0152721336 81.957,2.88227213 81.95,6.58627213 C81.942,10.2242721 79.045,13.1702721 75.455,13.1282721 C71.874,13.0862721 68.945,10.0482721 69.096,6.58827213 L69.096,6.58727213 Z" id="Shape"></path>
        </g>
    </g>
</svg>